<?xml version="1.0" encoding="UTF-8" standalone="no"?>
<!DOCTYPE svg PUBLIC "-//W3C//DTD SVG 20010904//EN"
              "http://www.w3.org/TR/2001/REC-SVG-20010904/DTD/svg10.dtd">

<svg xmlns="http://www.w3.org/2000/svg"
     width="187.706mm" height="187.622mm"
     viewBox="0 0 2217 2216">
  <path id="Selection"
        fill="none" stroke="black" stroke-width="1"
        d="M 770.00,111.00
           C 826.99,92.00 887.41,76.17 947.00,68.00
             947.00,68.00 988.00,62.72 988.00,62.72
             991.23,62.32 1002.03,60.40 1004.37,62.00
             1006.75,63.62 1010.28,72.96 1011.58,76.00
             1011.58,76.00 1026.86,111.00 1026.86,111.00
             1026.86,111.00 1077.28,226.00 1077.28,226.00
             1077.28,226.00 1088.23,251.00 1088.23,251.00
             1089.41,253.58 1091.05,258.47 1093.39,259.98
             1095.32,261.22 1098.74,261.00 1101.00,261.00
             1101.00,261.00 1141.00,262.00 1141.00,262.00
             1141.00,262.00 1151.00,262.91 1151.00,262.91
             1151.00,262.91 1188.00,265.83 1188.00,265.83
             1220.26,269.06 1255.46,274.41 1287.00,281.88
             1287.00,281.88 1326.00,291.71 1326.00,291.71
             1329.80,292.79 1338.41,296.26 1341.82,294.23
             1344.16,292.83 1349.53,284.65 1351.42,282.00
             1351.42,282.00 1370.00,256.00 1370.00,256.00
             1370.00,256.00 1435.71,164.00 1435.71,164.00
             1435.71,164.00 1458.58,132.00 1458.58,132.00
             1460.56,129.22 1464.76,121.96 1468.18,121.48
             1471.00,121.08 1479.06,124.64 1482.00,125.80
             1482.00,125.80 1515.00,139.15 1515.00,139.15
             1558.02,157.61 1599.84,178.50 1640.00,202.60
             1640.00,202.60 1675.00,224.33 1675.00,224.33
             1678.72,226.82 1685.50,229.97 1685.56,235.01
             1685.56,235.01 1681.00,252.00 1681.00,252.00
             1681.00,252.00 1671.02,286.00 1671.02,286.00
             1671.02,286.00 1640.58,390.00 1640.58,390.00
             1640.58,390.00 1629.14,429.00 1629.14,429.00
             1628.19,432.33 1624.86,440.75 1626.19,443.71
             1627.31,446.18 1640.03,455.92 1643.00,458.42
             1643.00,458.42 1681.00,492.17 1681.00,492.17
             1681.00,492.17 1698.00,509.00 1698.00,509.00
             1717.18,528.18 1735.07,548.16 1752.41,569.00
             1759.99,578.10 1782.26,605.80 1787.00,615.00
             1787.00,615.00 1814.00,608.12 1814.00,608.12
             1814.00,608.12 1907.00,584.12 1907.00,584.12
             1907.00,584.12 1969.00,568.12 1969.00,568.12
             1969.00,568.12 2001.00,560.00 2001.00,560.00
             2001.00,560.00 2036.74,624.00 2036.74,624.00
             2054.75,658.91 2070.56,695.25 2084.42,732.00
             2084.42,732.00 2103.00,786.00 2103.00,786.00
             2103.00,786.00 1971.00,873.67 1971.00,873.67
             1971.00,873.67 1936.00,897.00 1936.00,897.00
             1933.17,898.88 1923.39,904.78 1922.19,907.32
             1920.97,909.93 1924.57,922.53 1925.35,926.00
             1925.35,926.00 1934.41,975.00 1934.41,975.00
             1938.09,997.90 1940.51,1020.90 1942.09,1044.00
             1942.09,1044.00 1943.00,1054.00 1943.00,1054.00
             1943.00,1054.00 1944.00,1073.00 1944.00,1073.00
             1944.00,1073.00 1944.00,1099.00 1944.00,1099.00
             1944.00,1099.00 1944.00,1129.00 1944.00,1129.00
             1944.00,1134.92 1944.62,1141.29 1943.00,1147.00
             1948.29,1148.51 1952.97,1151.38 1958.00,1153.58
             1958.00,1153.58 2000.00,1173.74 2000.00,1173.74
             2000.00,1173.74 2088.00,1215.74 2088.00,1215.74
             2088.00,1215.74 2126.00,1233.75 2126.00,1233.75
             2128.53,1235.02 2139.86,1240.14 2140.87,1241.70
             2142.95,1244.32 2141.21,1252.72 2140.87,1256.00
             2140.87,1256.00 2134.00,1296.00 2134.00,1296.00
             2125.06,1342.16 2113.91,1387.27 2099.33,1432.00
             2099.33,1432.00 2087.68,1465.00 2087.68,1465.00
             2086.78,1467.43 2084.14,1475.71 2082.30,1476.97
             2080.36,1478.30 2070.71,1476.62 2068.00,1476.28
             2068.00,1476.28 2030.00,1472.07 2030.00,1472.07
             2030.00,1472.07 1932.00,1461.16 1932.00,1461.16
             1932.00,1461.16 1896.00,1457.16 1896.00,1457.16
             1896.00,1457.16 1869.00,1454.00 1869.00,1454.00
             1866.30,1463.45 1850.68,1493.06 1845.31,1503.00
             1823.11,1544.03 1801.16,1578.64 1773.13,1616.00
             1773.13,1616.00 1740.87,1656.00 1740.87,1656.00
             1738.06,1659.27 1726.33,1671.98 1725.55,1675.00
             1724.73,1678.16 1728.24,1683.94 1729.58,1687.00
             1729.58,1687.00 1744.14,1719.00 1744.14,1719.00
             1744.14,1719.00 1796.00,1833.00 1796.00,1833.00
             1796.00,1833.00 1808.25,1860.00 1808.25,1860.00
             1809.53,1862.69 1813.44,1870.30 1813.01,1872.99
             1812.53,1876.02 1808.22,1879.04 1806.00,1881.08
             1806.00,1881.08 1786.00,1898.73 1786.00,1898.73
             1758.06,1922.55 1728.96,1944.39 1699.00,1965.58
             1699.00,1965.58 1646.00,1999.60 1646.00,1999.60
             1642.38,2001.77 1628.19,2010.93 1625.01,2011.05
             1621.36,2011.19 1617.44,2005.52 1614.99,2003.00
             1614.99,2003.00 1590.00,1977.00 1590.00,1977.00
             1590.00,1977.00 1554.91,1940.00 1554.91,1940.00
             1554.91,1940.00 1520.04,1904.00 1520.04,1904.00
             1520.04,1904.00 1508.00,1891.00 1508.00,1891.00
             1508.00,1891.00 1487.00,1869.00 1487.00,1869.00
             1485.31,1867.31 1480.66,1862.15 1478.58,1861.63
             1476.65,1861.15 1473.71,1862.91 1472.00,1863.75
             1472.00,1863.75 1458.00,1870.58 1458.00,1870.58
             1458.00,1870.58 1397.00,1896.19 1397.00,1896.19
             1353.88,1912.54 1309.19,1924.76 1264.00,1933.80
             1251.11,1936.38 1207.40,1943.75 1196.00,1944.00
             1196.00,1944.00 1191.15,1964.00 1191.15,1964.00
             1191.15,1964.00 1181.15,2000.00 1181.15,2000.00
             1181.15,2000.00 1154.58,2096.00 1154.58,2096.00
             1154.58,2096.00 1144.58,2132.00 1144.58,2132.00
             1144.58,2132.00 1140.00,2149.00 1140.00,2149.00
             1140.00,2149.00 1119.00,2150.00 1119.00,2150.00
             1119.00,2150.00 1083.00,2150.00 1083.00,2150.00
             1083.00,2150.00 1066.00,2149.00 1066.00,2149.00
             1033.61,2148.95 1001.18,2144.65 969.00,2141.05
             969.00,2141.05 927.00,2134.75 927.00,2134.75
             923.77,2134.22 915.10,2133.64 913.57,2130.57
             912.74,2128.89 913.06,2122.42 912.83,2120.00
             912.83,2120.00 910.96,2098.00 910.96,2098.00
             910.96,2098.00 910.96,2088.00 910.96,2088.00
             910.96,2088.00 903.04,1974.00 903.04,1974.00
             903.04,1974.00 903.04,1964.00 903.04,1964.00
             903.04,1964.00 901.04,1940.00 901.04,1940.00
             900.86,1935.83 901.87,1929.64 898.57,1926.56
             896.54,1924.67 891.74,1923.81 889.00,1923.13
             889.00,1923.13 870.00,1918.00 870.00,1918.00
             870.00,1918.00 802.00,1895.58 802.00,1895.58
             754.13,1877.52 709.88,1856.13 666.00,1829.80
             648.26,1819.15 626.23,1805.53 610.00,1793.00
             604.96,1798.62 581.77,1813.29 574.00,1818.72
             574.00,1818.72 488.00,1877.86 488.00,1877.86
             488.00,1877.86 456.00,1899.86 456.00,1899.86
             453.28,1901.79 442.58,1909.49 440.00,1909.85
             436.20,1910.39 430.76,1904.63 428.00,1902.27
             428.00,1902.27 401.00,1878.58 401.00,1878.58
             371.04,1852.57 340.15,1818.88 313.85,1789.00
             313.85,1789.00 292.80,1764.00 292.80,1764.00
             290.94,1761.69 285.64,1755.61 285.13,1753.00
             284.44,1749.50 289.39,1743.82 291.42,1741.00
             291.42,1741.00 314.37,1710.00 314.37,1710.00
             314.37,1710.00 376.87,1625.00 376.87,1625.00
             376.87,1625.00 396.71,1598.00 396.71,1598.00
             398.34,1595.73 403.54,1589.22 404.07,1587.00
             404.82,1583.84 401.99,1580.50 400.33,1578.00
             400.33,1578.00 386.42,1557.00 386.42,1557.00
             369.17,1529.43 353.71,1501.12 339.25,1472.00
             319.73,1432.70 303.33,1388.04 290.72,1346.00
             290.72,1346.00 280.42,1308.00 280.42,1308.00
             279.64,1304.46 277.54,1292.75 275.42,1290.56
             272.65,1287.71 265.83,1288.08 262.00,1287.58
             262.00,1287.58 222.00,1283.83 222.00,1283.83
             222.00,1283.83 135.00,1275.17 135.00,1275.17
             135.00,1275.17 71.00,1269.00 71.00,1269.00
             71.00,1269.00 68.27,1250.00 68.27,1250.00
             68.27,1250.00 64.16,1217.00 64.16,1217.00
             60.11,1179.13 58.00,1141.09 58.00,1103.00
             58.00,1103.00 58.00,1081.00 58.00,1081.00
             58.00,1081.00 59.00,1065.00 59.00,1065.00
             59.01,1056.46 58.86,1053.66 60.00,1045.00
             60.00,1045.00 107.00,1033.88 107.00,1033.88
             107.00,1033.88 210.00,1008.88 210.00,1008.88
             210.00,1008.88 247.00,999.88 247.00,999.88
             251.05,998.92 259.68,997.92 262.26,994.70
             264.34,992.11 265.00,982.67 265.59,979.00
             265.59,979.00 272.40,940.00 272.40,940.00
             280.68,898.61 291.56,857.66 306.05,818.00
             316.50,789.40 328.13,761.24 341.75,734.00
             341.75,734.00 353.25,711.00 353.25,711.00
             354.40,708.71 357.06,704.53 356.48,702.00
             355.85,699.25 350.14,694.14 348.00,692.00
             348.00,692.00 326.00,670.00 326.00,670.00
             326.00,670.00 300.99,644.00 300.99,644.00
             300.99,644.00 258.01,601.00 258.01,601.00
             258.01,601.00 247.00,589.00 247.00,589.00
             247.00,589.00 221.00,563.00 221.00,563.00
             216.85,558.82 212.76,556.15 215.71,550.00
             215.71,550.00 250.14,498.00 250.14,498.00
             271.62,468.03 294.12,438.25 319.00,411.00
             319.00,411.00 335.09,393.00 335.09,393.00
             335.09,393.00 344.72,383.00 344.72,383.00
             347.65,379.67 352.05,373.23 357.00,373.53
             359.65,373.70 368.15,378.33 371.00,379.75
             371.00,379.75 399.00,393.75 399.00,393.75
             399.00,393.75 499.00,443.25 499.00,443.25
             499.00,443.25 535.00,461.00 535.00,461.00
             538.07,462.33 545.02,466.41 548.00,465.59
             550.70,464.86 562.92,453.95 566.00,451.42
             566.00,451.42 607.00,420.00 607.00,420.00
             648.20,390.63 691.98,363.82 738.00,342.69
             748.31,337.96 777.53,323.71 787.00,322.00
             787.00,322.00 785.83,309.00 785.83,309.00
             785.83,309.00 782.83,270.00 782.83,270.00
             782.83,270.00 778.83,219.00 778.83,219.00
             778.83,219.00 774.09,162.00 774.09,162.00
             774.09,162.00 770.00,111.00 770.00,111.00 Z
           M 1370.00,1306.00
           C 1372.81,1311.94 1378.31,1316.09 1382.58,1321.00
             1382.58,1321.00 1420.00,1359.00 1420.00,1359.00
             1420.00,1359.00 1530.00,1470.00 1530.00,1470.00
             1530.00,1470.00 1566.91,1507.00 1566.91,1507.00
             1569.66,1509.96 1576.60,1519.80 1580.96,1518.66
             1583.09,1518.11 1585.68,1514.67 1587.08,1513.00
             1587.08,1513.00 1600.79,1496.00 1600.79,1496.00
             1618.49,1473.52 1634.50,1449.66 1648.99,1425.00
             1684.98,1363.74 1711.81,1291.95 1724.42,1222.00
             1728.73,1198.12 1733.72,1164.96 1734.00,1141.00
             1734.00,1141.00 1735.00,1126.00 1735.00,1126.00
             1735.00,1126.00 1735.00,1085.00 1735.00,1085.00
             1735.00,1085.00 1734.00,1066.00 1734.00,1066.00
             1734.00,1066.00 1733.09,1056.00 1733.09,1056.00
             1733.09,1056.00 1730.15,1026.00 1730.15,1026.00
             1725.64,988.28 1717.29,951.25 1706.02,915.00
             1640.76,704.98 1468.13,542.91 1255.00,489.63
             1217.07,480.14 1178.05,473.66 1139.00,471.96
             1139.00,471.96 1128.00,471.00 1128.00,471.00
             1099.02,470.66 1069.82,470.41 1041.00,473.17
             970.59,479.90 901.32,498.24 837.00,527.69
             816.48,537.09 796.36,547.38 777.00,559.00
             770.13,563.12 758.16,569.44 753.00,575.00
             753.00,575.00 984.00,575.00 984.00,575.00
             984.00,575.00 1123.00,575.00 1123.00,575.00
             1167.24,575.00 1197.59,573.41 1242.00,581.42
             1316.42,594.85 1384.77,630.55 1440.00,681.91
             1458.42,699.04 1484.71,727.14 1497.00,749.00
             1497.00,749.00 1406.00,749.00 1406.00,749.00
             1403.91,749.00 1400.94,749.12 1399.00,748.40
             1394.95,746.91 1385.98,736.79 1382.00,733.28
             1368.23,721.17 1353.57,710.12 1338.00,700.42
             1298.49,675.82 1253.32,659.79 1207.00,654.84
             1207.00,654.84 1185.00,653.00 1185.00,653.00
             1185.00,653.00 663.00,653.00 663.00,653.00
             652.34,653.02 651.38,656.62 644.00,664.00
             644.00,664.00 622.85,687.00 622.85,687.00
             599.18,713.88 576.63,744.28 558.20,775.00
             558.20,775.00 538.00,811.00 538.00,811.00
             538.00,811.00 1178.00,811.00 1178.00,811.00
             1185.74,811.01 1195.36,812.50 1203.00,814.00
             1263.64,825.94 1312.70,874.27 1324.80,935.00
             1326.39,943.01 1327.99,952.88 1328.00,961.00
             1328.00,961.00 1328.00,974.00 1328.00,974.00
             1327.97,993.60 1321.07,1018.34 1312.68,1036.00
             1288.83,1086.21 1237.88,1119.25 1183.00,1123.09
             1183.00,1123.09 1171.00,1124.00 1171.00,1124.00
             1171.00,1124.00 734.00,1124.00 734.00,1124.00
             734.00,1124.00 734.00,1357.00 734.00,1357.00
             734.00,1359.24 733.76,1362.56 734.99,1364.47
             736.29,1366.48 741.76,1369.48 744.00,1371.04
             749.29,1374.72 754.51,1379.21 758.83,1384.00
             772.02,1398.63 779.67,1416.44 781.09,1436.00
             781.31,1439.11 781.92,1440.76 781.68,1444.00
             780.34,1461.82 777.01,1474.89 767.00,1490.00
             762.50,1496.78 758.79,1502.83 750.00,1503.00
             750.00,1503.00 744.00,1503.00 744.00,1503.00
             744.00,1503.00 744.00,1445.00 744.00,1445.00
             744.00,1443.19 744.14,1439.93 743.43,1438.33
             741.87,1434.80 727.06,1427.33 723.00,1425.00
             723.00,1425.00 705.00,1414.58 705.00,1414.58
             702.94,1413.40 698.13,1410.41 696.00,1410.08
             692.45,1409.53 685.26,1414.55 682.00,1416.42
             682.00,1416.42 658.00,1430.28 658.00,1430.28
             655.43,1431.74 648.42,1435.33 646.99,1437.53
             645.76,1439.43 646.00,1442.77 646.00,1445.00
             646.00,1445.00 646.00,1503.00 646.00,1503.00
             646.00,1503.00 640.00,1503.00 640.00,1503.00
             631.49,1502.84 628.28,1497.52 623.72,1491.00
             615.43,1479.15 609.17,1462.57 609.00,1448.00
             609.00,1448.00 609.00,1438.00 609.00,1438.00
             609.03,1419.52 617.34,1401.18 628.80,1387.00
             634.04,1380.52 637.44,1377.66 644.00,1372.65
             655.00,1364.27 655.98,1367.67 656.00,1357.00
             656.00,1357.00 656.00,1046.00 656.00,1046.00
             656.00,1046.00 905.00,1046.00 905.00,1046.00
             905.00,1046.00 1172.00,1046.00 1172.00,1046.00
             1183.02,1045.98 1194.98,1043.31 1205.00,1038.69
             1254.91,1015.68 1265.95,947.69 1226.00,910.09
             1219.04,903.54 1210.85,898.19 1202.00,894.60
             1192.77,890.86 1184.99,889.02 1175.00,889.00
             1175.00,889.00 511.00,889.00 511.00,889.00
             508.52,889.00 504.90,888.58 503.08,890.57
             501.59,892.21 498.58,902.27 497.67,905.00
             497.67,905.00 487.13,940.00 487.13,940.00
             476.82,981.04 471.91,1007.85 467.83,1050.00
             467.83,1050.00 465.96,1073.00 465.96,1073.00
             465.96,1073.00 465.96,1087.00 465.96,1087.00
             465.96,1087.00 465.00,1099.00 465.00,1099.00
             465.00,1099.00 465.00,1114.00 465.00,1114.00
             465.00,1114.00 465.96,1124.00 465.96,1124.00
             465.96,1124.00 465.96,1138.00 465.96,1138.00
             465.96,1138.00 466.91,1148.00 466.91,1148.00
             469.53,1186.33 475.30,1223.67 484.63,1261.00
             522.31,1411.74 616.61,1546.07 746.00,1632.33
             777.72,1653.48 810.97,1672.16 846.00,1687.28
             846.00,1687.28 892.00,1705.00 892.00,1705.00
             892.00,1705.00 892.00,1282.00 892.00,1282.00
             892.00,1282.00 1004.00,1282.00 1004.00,1282.00
             1006.09,1282.00 1009.06,1281.88 1011.00,1282.60
             1015.00,1284.07 1024.48,1294.48 1028.00,1298.00
             1028.00,1298.00 1074.00,1344.00 1074.00,1344.00
             1074.00,1344.00 1088.00,1359.00 1088.00,1359.00
             1088.00,1359.00 1214.00,1485.00 1214.00,1485.00
             1214.00,1485.00 1225.01,1497.00 1225.01,1497.00
             1225.01,1497.00 1264.00,1536.00 1264.00,1536.00
             1264.00,1536.00 1324.00,1596.00 1324.00,1596.00
             1324.00,1596.00 1358.42,1631.00 1358.42,1631.00
             1358.42,1631.00 1385.00,1658.00 1385.00,1658.00
             1387.57,1660.57 1392.26,1666.17 1396.00,1666.30
             1398.81,1666.39 1404.47,1662.87 1407.00,1661.42
             1407.00,1661.42 1432.00,1646.81 1432.00,1646.81
             1454.92,1632.77 1477.01,1617.35 1498.00,1600.55
             1498.00,1600.55 1526.00,1577.00 1526.00,1577.00
             1526.00,1577.00 1489.00,1538.00 1489.00,1538.00
             1489.00,1538.00 1423.00,1472.00 1423.00,1472.00
             1423.00,1472.00 1398.04,1447.00 1398.04,1447.00
             1398.04,1447.00 1388.00,1436.00 1388.00,1436.00
             1388.00,1436.00 1283.00,1331.00 1283.00,1331.00
             1283.00,1331.00 1271.99,1319.00 1271.99,1319.00
             1271.99,1319.00 1234.00,1281.00 1234.00,1281.00
             1234.00,1281.00 1272.00,1266.20 1272.00,1266.20
             1305.14,1252.94 1328.75,1242.65 1358.00,1221.12
             1417.24,1177.50 1459.05,1115.30 1476.87,1044.00
             1481.03,1027.39 1485.80,1001.94 1486.00,985.00
             1486.03,982.39 1486.30,973.29 1485.43,971.38
             1484.25,968.79 1477.63,965.43 1475.00,963.51
             1469.42,959.44 1462.83,953.32 1458.46,948.00
             1443.76,930.06 1438.74,911.77 1439.00,889.00
             1439.19,873.47 1445.61,856.66 1454.35,844.00
             1458.73,837.64 1461.78,832.16 1470.00,832.00
             1470.00,832.00 1476.00,832.00 1476.00,832.00
             1476.00,832.00 1476.00,887.00 1476.00,887.00
             1476.00,889.38 1475.79,892.70 1477.02,894.79
             1478.49,897.28 1484.34,900.21 1487.00,901.80
             1487.00,901.80 1512.00,916.28 1512.00,916.28
             1515.16,918.08 1522.61,923.15 1526.00,922.77
             1528.22,922.52 1532.86,919.50 1535.00,918.28
             1535.00,918.28 1553.00,907.99 1553.00,907.99
             1556.54,905.91 1571.42,897.92 1573.01,895.47
             1574.24,893.57 1574.00,890.23 1574.00,888.00
             1574.00,888.00 1574.00,832.00 1574.00,832.00
             1576.71,832.00 1582.70,831.75 1585.00,832.60
             1592.24,835.27 1600.94,851.00 1604.22,858.00
             1617.58,886.49 1612.84,922.80 1592.72,947.00
             1586.78,954.14 1583.47,957.48 1576.00,963.10
             1573.36,965.09 1566.41,969.03 1565.02,971.33
             1563.53,973.79 1564.03,979.98 1564.00,983.00
             1564.00,983.00 1563.09,993.00 1563.09,993.00
             1561.46,1016.76 1558.16,1039.84 1552.37,1063.00
             1534.63,1133.98 1499.70,1194.30 1448.00,1246.00
             1425.74,1268.26 1397.54,1290.60 1370.00,1306.00 Z
           M 971.00,1351.00
           C 971.00,1351.00 970.00,1363.00 970.00,1363.00
             970.00,1363.00 970.00,1385.00 970.00,1385.00
             970.00,1385.00 970.00,1462.00 970.00,1462.00
             970.00,1462.00 970.00,1727.00 970.00,1727.00
             970.00,1727.00 1032.00,1736.83 1032.00,1736.83
             1095.02,1743.14 1155.63,1740.83 1218.00,1729.58
             1242.70,1725.12 1266.99,1718.51 1291.00,1711.28
             1291.00,1711.28 1319.00,1702.00 1319.00,1702.00
             1319.00,1702.00 1286.00,1668.00 1286.00,1668.00
             1286.00,1668.00 1216.04,1598.00 1216.04,1598.00
             1216.04,1598.00 1207.96,1589.00 1207.96,1589.00
             1207.96,1589.00 1168.00,1549.00 1168.00,1549.00
             1168.00,1549.00 1089.00,1470.00 1089.00,1470.00
             1089.00,1470.00 1073.00,1453.00 1073.00,1453.00
             1073.00,1453.00 971.00,1351.00 971.00,1351.00 Z" />
</svg>
