<?xml version="1.0" encoding="UTF-8" standalone="no"?>
<!DOCTYPE svg PUBLIC "-//W3C//DTD SVG 20010904//EN"
              "http://www.w3.org/TR/2001/REC-SVG-20010904/DTD/svg10.dtd">

<svg xmlns="http://www.w3.org/2000/svg"
     width="282.279mm" height="282.364mm"
     viewBox="0 0 3334 3335">
  <path id="Selection"
        fill="none" stroke="black" stroke-width="1"
        d="M 1337.00,673.00
           C 1393.99,654.00 1454.41,638.17 1514.00,630.00
             1514.00,630.00 1555.00,624.72 1555.00,624.72
             1558.23,624.32 1569.03,622.40 1571.37,624.00
             1573.75,625.62 1577.28,634.96 1578.58,638.00
             1578.58,638.00 1593.86,673.00 1593.86,673.00
             1593.86,673.00 1644.28,788.00 1644.28,788.00
             1644.28,788.00 1655.23,813.00 1655.23,813.00
             1656.41,815.58 1658.05,820.47 1660.39,821.98
             1662.32,823.22 1665.74,823.00 1668.00,823.00
             1668.00,823.00 1708.00,824.00 1708.00,824.00
             1708.00,824.00 1718.00,824.91 1718.00,824.91
             1718.00,824.91 1755.00,827.83 1755.00,827.83
             1787.26,831.06 1822.46,836.41 1854.00,843.88
             1854.00,843.88 1893.00,853.71 1893.00,853.71
             1896.80,854.79 1905.41,858.26 1908.82,856.23
             1911.16,854.83 1916.53,846.65 1918.42,844.00
             1918.42,844.00 1937.00,818.00 1937.00,818.00
             1937.00,818.00 2002.71,726.00 2002.71,726.00
             2002.71,726.00 2025.58,694.00 2025.58,694.00
             2027.56,691.22 2031.76,683.96 2035.18,683.48
             2038.00,683.08 2046.06,686.64 2049.00,687.80
             2049.00,687.80 2082.00,701.15 2082.00,701.15
             2125.02,719.61 2166.84,740.50 2207.00,764.60
             2207.00,764.60 2242.00,786.33 2242.00,786.33
             2245.72,788.82 2252.50,791.97 2252.56,797.01
             2252.56,797.01 2248.00,814.00 2248.00,814.00
             2248.00,814.00 2238.02,848.00 2238.02,848.00
             2238.02,848.00 2207.58,952.00 2207.58,952.00
             2207.58,952.00 2196.14,991.00 2196.14,991.00
             2195.19,994.33 2191.86,1002.75 2193.19,1005.71
             2194.31,1008.18 2207.03,1017.92 2210.00,1020.42
             2210.00,1020.42 2248.00,1054.17 2248.00,1054.17
             2248.00,1054.17 2265.00,1071.00 2265.00,1071.00
             2284.18,1090.18 2302.07,1110.16 2319.41,1131.00
             2326.99,1140.10 2349.26,1167.80 2354.00,1177.00
             2354.00,1177.00 2381.00,1170.12 2381.00,1170.12
             2381.00,1170.12 2474.00,1146.12 2474.00,1146.12
             2474.00,1146.12 2536.00,1130.12 2536.00,1130.12
             2536.00,1130.12 2568.00,1122.00 2568.00,1122.00
             2568.00,1122.00 2603.74,1186.00 2603.74,1186.00
             2621.75,1220.91 2637.56,1257.25 2651.42,1294.00
             2651.42,1294.00 2670.00,1348.00 2670.00,1348.00
             2670.00,1348.00 2538.00,1435.67 2538.00,1435.67
             2538.00,1435.67 2503.00,1459.00 2503.00,1459.00
             2500.17,1460.88 2490.39,1466.78 2489.19,1469.32
             2487.97,1471.93 2491.57,1484.53 2492.35,1488.00
             2492.35,1488.00 2501.41,1537.00 2501.41,1537.00
             2505.09,1559.90 2507.51,1582.90 2509.09,1606.00
             2509.09,1606.00 2510.00,1616.00 2510.00,1616.00
             2510.00,1616.00 2511.00,1635.00 2511.00,1635.00
             2511.00,1635.00 2511.00,1661.00 2511.00,1661.00
             2511.00,1661.00 2511.00,1691.00 2511.00,1691.00
             2511.00,1696.92 2511.62,1703.29 2510.00,1709.00
             2515.29,1710.51 2519.97,1713.38 2525.00,1715.58
             2525.00,1715.58 2567.00,1735.74 2567.00,1735.74
             2567.00,1735.74 2655.00,1777.74 2655.00,1777.74
             2655.00,1777.74 2693.00,1795.75 2693.00,1795.75
             2695.53,1797.02 2706.86,1802.14 2707.87,1803.70
             2709.95,1806.32 2708.21,1814.72 2707.87,1818.00
             2707.87,1818.00 2701.00,1858.00 2701.00,1858.00
             2692.06,1904.16 2680.91,1949.27 2666.33,1994.00
             2666.33,1994.00 2654.68,2027.00 2654.68,2027.00
             2653.78,2029.43 2651.14,2037.71 2649.30,2038.97
             2647.36,2040.30 2637.71,2038.62 2635.00,2038.28
             2635.00,2038.28 2597.00,2034.07 2597.00,2034.07
             2597.00,2034.07 2499.00,2023.16 2499.00,2023.16
             2499.00,2023.16 2463.00,2019.16 2463.00,2019.16
             2463.00,2019.16 2436.00,2016.00 2436.00,2016.00
             2433.30,2025.45 2417.68,2055.06 2412.31,2065.00
             2390.11,2106.03 2368.16,2140.64 2340.13,2178.00
             2340.13,2178.00 2307.87,2218.00 2307.87,2218.00
             2305.06,2221.27 2293.33,2233.98 2292.55,2237.00
             2291.73,2240.16 2295.24,2245.94 2296.58,2249.00
             2296.58,2249.00 2311.14,2281.00 2311.14,2281.00
             2311.14,2281.00 2363.00,2395.00 2363.00,2395.00
             2363.00,2395.00 2375.25,2422.00 2375.25,2422.00
             2376.53,2424.69 2380.44,2432.30 2380.01,2434.99
             2379.53,2438.02 2375.22,2441.04 2373.00,2443.08
             2373.00,2443.08 2353.00,2460.73 2353.00,2460.73
             2325.06,2484.55 2295.96,2506.39 2266.00,2527.58
             2266.00,2527.58 2213.00,2561.60 2213.00,2561.60
             2209.38,2563.77 2195.19,2572.93 2192.01,2573.05
             2188.36,2573.19 2184.44,2567.52 2181.99,2565.00
             2181.99,2565.00 2157.00,2539.00 2157.00,2539.00
             2157.00,2539.00 2121.91,2502.00 2121.91,2502.00
             2121.91,2502.00 2087.04,2466.00 2087.04,2466.00
             2087.04,2466.00 2075.00,2453.00 2075.00,2453.00
             2075.00,2453.00 2054.00,2431.00 2054.00,2431.00
             2052.31,2429.31 2047.66,2424.15 2045.58,2423.63
             2043.65,2423.15 2040.71,2424.91 2039.00,2425.75
             2039.00,2425.75 2025.00,2432.58 2025.00,2432.58
             2025.00,2432.58 1964.00,2458.19 1964.00,2458.19
             1920.88,2474.54 1876.19,2486.76 1831.00,2495.80
             1818.11,2498.38 1774.40,2505.75 1763.00,2506.00
             1763.00,2506.00 1758.15,2526.00 1758.15,2526.00
             1758.15,2526.00 1748.15,2562.00 1748.15,2562.00
             1748.15,2562.00 1721.58,2658.00 1721.58,2658.00
             1721.58,2658.00 1711.58,2694.00 1711.58,2694.00
             1711.58,2694.00 1707.00,2711.00 1707.00,2711.00
             1707.00,2711.00 1686.00,2712.00 1686.00,2712.00
             1686.00,2712.00 1650.00,2712.00 1650.00,2712.00
             1650.00,2712.00 1633.00,2711.00 1633.00,2711.00
             1600.61,2710.95 1568.18,2706.65 1536.00,2703.05
             1536.00,2703.05 1494.00,2696.75 1494.00,2696.75
             1490.77,2696.22 1482.10,2695.64 1480.57,2692.57
             1479.74,2690.89 1480.06,2684.42 1479.83,2682.00
             1479.83,2682.00 1477.96,2660.00 1477.96,2660.00
             1477.96,2660.00 1477.96,2650.00 1477.96,2650.00
             1477.96,2650.00 1470.04,2536.00 1470.04,2536.00
             1470.04,2536.00 1470.04,2526.00 1470.04,2526.00
             1470.04,2526.00 1468.04,2502.00 1468.04,2502.00
             1467.86,2497.83 1468.87,2491.64 1465.57,2488.56
             1463.54,2486.67 1458.74,2485.81 1456.00,2485.13
             1456.00,2485.13 1437.00,2480.00 1437.00,2480.00
             1437.00,2480.00 1369.00,2457.58 1369.00,2457.58
             1321.13,2439.52 1276.88,2418.13 1233.00,2391.80
             1215.26,2381.15 1193.23,2367.53 1177.00,2355.00
             1171.96,2360.62 1148.77,2375.29 1141.00,2380.72
             1141.00,2380.72 1055.00,2439.86 1055.00,2439.86
             1055.00,2439.86 1023.00,2461.86 1023.00,2461.86
             1020.28,2463.79 1009.58,2471.49 1007.00,2471.85
             1003.20,2472.39 997.76,2466.63 995.00,2464.27
             995.00,2464.27 968.00,2440.58 968.00,2440.58
             938.04,2414.57 907.15,2380.88 880.85,2351.00
             880.85,2351.00 859.80,2326.00 859.80,2326.00
             857.94,2323.69 852.64,2317.61 852.13,2315.00
             851.44,2311.50 856.39,2305.82 858.42,2303.00
             858.42,2303.00 881.37,2272.00 881.37,2272.00
             881.37,2272.00 943.87,2187.00 943.87,2187.00
             943.87,2187.00 963.71,2160.00 963.71,2160.00
             965.34,2157.73 970.54,2151.22 971.07,2149.00
             971.82,2145.84 968.99,2142.50 967.33,2140.00
             967.33,2140.00 953.42,2119.00 953.42,2119.00
             936.17,2091.43 920.71,2063.12 906.25,2034.00
             886.73,1994.70 870.33,1950.04 857.72,1908.00
             857.72,1908.00 847.42,1870.00 847.42,1870.00
             846.64,1866.46 844.54,1854.75 842.42,1852.56
             839.65,1849.71 832.83,1850.08 829.00,1849.58
             829.00,1849.58 789.00,1845.83 789.00,1845.83
             789.00,1845.83 702.00,1837.17 702.00,1837.17
             702.00,1837.17 638.00,1831.00 638.00,1831.00
             638.00,1831.00 635.27,1812.00 635.27,1812.00
             635.27,1812.00 631.16,1779.00 631.16,1779.00
             627.11,1741.13 625.00,1703.09 625.00,1665.00
             625.00,1665.00 625.00,1643.00 625.00,1643.00
             625.00,1643.00 626.00,1627.00 626.00,1627.00
             626.01,1618.46 625.86,1615.66 627.00,1607.00
             627.00,1607.00 674.00,1595.88 674.00,1595.88
             674.00,1595.88 777.00,1570.88 777.00,1570.88
             777.00,1570.88 814.00,1561.88 814.00,1561.88
             818.05,1560.92 826.68,1559.92 829.26,1556.70
             831.34,1554.11 832.00,1544.67 832.59,1541.00
             832.59,1541.00 839.40,1502.00 839.40,1502.00
             847.68,1460.61 858.56,1419.66 873.05,1380.00
             883.50,1351.40 895.13,1323.24 908.75,1296.00
             908.75,1296.00 920.25,1273.00 920.25,1273.00
             921.40,1270.71 924.06,1266.53 923.48,1264.00
             922.85,1261.25 917.14,1256.14 915.00,1254.00
             915.00,1254.00 893.00,1232.00 893.00,1232.00
             893.00,1232.00 867.99,1206.00 867.99,1206.00
             867.99,1206.00 825.01,1163.00 825.01,1163.00
             825.01,1163.00 814.00,1151.00 814.00,1151.00
             814.00,1151.00 788.00,1125.00 788.00,1125.00
             783.85,1120.82 779.76,1118.15 782.71,1112.00
             782.71,1112.00 817.14,1060.00 817.14,1060.00
             838.62,1030.03 861.12,1000.25 886.00,973.00
             886.00,973.00 902.09,955.00 902.09,955.00
             902.09,955.00 911.72,945.00 911.72,945.00
             914.65,941.67 919.05,935.23 924.00,935.53
             926.65,935.70 935.15,940.33 938.00,941.75
             938.00,941.75 966.00,955.75 966.00,955.75
             966.00,955.75 1066.00,1005.25 1066.00,1005.25
             1066.00,1005.25 1102.00,1023.00 1102.00,1023.00
             1105.07,1024.33 1112.02,1028.41 1115.00,1027.59
             1117.70,1026.86 1129.92,1015.95 1133.00,1013.42
             1133.00,1013.42 1174.00,982.00 1174.00,982.00
             1215.20,952.63 1258.98,925.82 1305.00,904.69
             1315.31,899.96 1344.53,885.71 1354.00,884.00
             1354.00,884.00 1352.83,871.00 1352.83,871.00
             1352.83,871.00 1349.83,832.00 1349.83,832.00
             1349.83,832.00 1345.83,781.00 1345.83,781.00
             1345.83,781.00 1341.09,724.00 1341.09,724.00
             1341.09,724.00 1337.00,673.00 1337.00,673.00 Z
           M 1937.00,1868.00
           C 1939.81,1873.94 1945.31,1878.09 1949.58,1883.00
             1949.58,1883.00 1987.00,1921.00 1987.00,1921.00
             1987.00,1921.00 2097.00,2032.00 2097.00,2032.00
             2097.00,2032.00 2133.91,2069.00 2133.91,2069.00
             2136.66,2071.96 2143.60,2081.80 2147.96,2080.66
             2150.09,2080.11 2152.68,2076.67 2154.08,2075.00
             2154.08,2075.00 2167.79,2058.00 2167.79,2058.00
             2185.49,2035.52 2201.50,2011.66 2215.99,1987.00
             2251.98,1925.74 2278.81,1853.95 2291.42,1784.00
             2295.73,1760.12 2300.72,1726.96 2301.00,1703.00
             2301.00,1703.00 2302.00,1688.00 2302.00,1688.00
             2302.00,1688.00 2302.00,1647.00 2302.00,1647.00
             2302.00,1647.00 2301.00,1628.00 2301.00,1628.00
             2301.00,1628.00 2300.09,1618.00 2300.09,1618.00
             2300.09,1618.00 2297.15,1588.00 2297.15,1588.00
             2292.64,1550.28 2284.29,1513.25 2273.02,1477.00
             2207.76,1266.98 2035.13,1104.91 1822.00,1051.63
             1784.07,1042.14 1745.05,1035.66 1706.00,1033.96
             1706.00,1033.96 1695.00,1033.00 1695.00,1033.00
             1666.02,1032.66 1636.82,1032.41 1608.00,1035.17
             1537.59,1041.90 1468.32,1060.24 1404.00,1089.69
             1383.48,1099.09 1363.36,1109.38 1344.00,1121.00
             1337.13,1125.12 1325.16,1131.44 1320.00,1137.00
             1320.00,1137.00 1551.00,1137.00 1551.00,1137.00
             1551.00,1137.00 1690.00,1137.00 1690.00,1137.00
             1734.24,1137.00 1764.59,1135.41 1809.00,1143.42
             1883.42,1156.85 1951.77,1192.55 2007.00,1243.91
             2025.42,1261.04 2051.71,1289.14 2064.00,1311.00
             2064.00,1311.00 1973.00,1311.00 1973.00,1311.00
             1970.91,1311.00 1967.94,1311.12 1966.00,1310.40
             1961.95,1308.91 1952.98,1298.79 1949.00,1295.28
             1935.23,1283.17 1920.57,1272.12 1905.00,1262.42
             1865.49,1237.82 1820.32,1221.79 1774.00,1216.84
             1774.00,1216.84 1752.00,1215.00 1752.00,1215.00
             1752.00,1215.00 1230.00,1215.00 1230.00,1215.00
             1219.34,1215.02 1218.38,1218.62 1211.00,1226.00
             1211.00,1226.00 1189.85,1249.00 1189.85,1249.00
             1166.18,1275.88 1143.63,1306.28 1125.20,1337.00
             1125.20,1337.00 1105.00,1373.00 1105.00,1373.00
             1105.00,1373.00 1745.00,1373.00 1745.00,1373.00
             1752.74,1373.01 1762.36,1374.50 1770.00,1376.00
             1830.64,1387.94 1879.70,1436.27 1891.80,1497.00
             1893.39,1505.01 1894.99,1514.88 1895.00,1523.00
             1895.00,1523.00 1895.00,1536.00 1895.00,1536.00
             1894.97,1555.60 1888.07,1580.34 1879.68,1598.00
             1855.83,1648.21 1804.88,1681.25 1750.00,1685.09
             1750.00,1685.09 1738.00,1686.00 1738.00,1686.00
             1738.00,1686.00 1301.00,1686.00 1301.00,1686.00
             1301.00,1686.00 1301.00,1919.00 1301.00,1919.00
             1301.00,1921.24 1300.76,1924.56 1301.99,1926.47
             1303.29,1928.48 1308.76,1931.48 1311.00,1933.04
             1316.29,1936.72 1321.51,1941.21 1325.83,1946.00
             1339.02,1960.63 1346.67,1978.44 1348.09,1998.00
             1348.31,2001.11 1348.92,2002.76 1348.68,2006.00
             1347.34,2023.82 1344.01,2036.89 1334.00,2052.00
             1329.50,2058.78 1325.79,2064.83 1317.00,2065.00
             1317.00,2065.00 1311.00,2065.00 1311.00,2065.00
             1311.00,2065.00 1311.00,2007.00 1311.00,2007.00
             1311.00,2005.19 1311.14,2001.93 1310.43,2000.33
             1308.87,1996.80 1294.06,1989.33 1290.00,1987.00
             1290.00,1987.00 1272.00,1976.58 1272.00,1976.58
             1269.94,1975.40 1265.13,1972.41 1263.00,1972.08
             1259.45,1971.53 1252.26,1976.55 1249.00,1978.42
             1249.00,1978.42 1225.00,1992.28 1225.00,1992.28
             1222.43,1993.74 1215.42,1997.33 1213.99,1999.53
             1212.76,2001.43 1213.00,2004.77 1213.00,2007.00
             1213.00,2007.00 1213.00,2065.00 1213.00,2065.00
             1213.00,2065.00 1207.00,2065.00 1207.00,2065.00
             1198.49,2064.84 1195.28,2059.52 1190.72,2053.00
             1182.43,2041.15 1176.17,2024.57 1176.00,2010.00
             1176.00,2010.00 1176.00,2000.00 1176.00,2000.00
             1176.03,1981.52 1184.34,1963.18 1195.80,1949.00
             1201.04,1942.52 1204.44,1939.66 1211.00,1934.65
             1222.00,1926.27 1222.98,1929.67 1223.00,1919.00
             1223.00,1919.00 1223.00,1608.00 1223.00,1608.00
             1223.00,1608.00 1472.00,1608.00 1472.00,1608.00
             1472.00,1608.00 1739.00,1608.00 1739.00,1608.00
             1750.02,1607.98 1761.98,1605.31 1772.00,1600.69
             1821.91,1577.68 1832.95,1509.69 1793.00,1472.09
             1786.04,1465.54 1777.85,1460.19 1769.00,1456.60
             1759.77,1452.86 1751.99,1451.02 1742.00,1451.00
             1742.00,1451.00 1078.00,1451.00 1078.00,1451.00
             1075.52,1451.00 1071.90,1450.58 1070.08,1452.57
             1068.59,1454.21 1065.58,1464.27 1064.67,1467.00
             1064.67,1467.00 1054.13,1502.00 1054.13,1502.00
             1043.82,1543.04 1038.91,1569.85 1034.83,1612.00
             1034.83,1612.00 1032.96,1635.00 1032.96,1635.00
             1032.96,1635.00 1032.96,1649.00 1032.96,1649.00
             1032.96,1649.00 1032.00,1661.00 1032.00,1661.00
             1032.00,1661.00 1032.00,1676.00 1032.00,1676.00
             1032.00,1676.00 1032.96,1686.00 1032.96,1686.00
             1032.96,1686.00 1032.96,1700.00 1032.96,1700.00
             1032.96,1700.00 1033.91,1710.00 1033.91,1710.00
             1036.53,1748.33 1042.30,1785.67 1051.63,1823.00
             1089.31,1973.74 1183.61,2108.07 1313.00,2194.33
             1344.72,2215.48 1377.97,2234.16 1413.00,2249.28
             1413.00,2249.28 1459.00,2267.00 1459.00,2267.00
             1459.00,2267.00 1459.00,1844.00 1459.00,1844.00
             1459.00,1844.00 1571.00,1844.00 1571.00,1844.00
             1573.09,1844.00 1576.06,1843.88 1578.00,1844.60
             1582.00,1846.07 1591.48,1856.48 1595.00,1860.00
             1595.00,1860.00 1641.00,1906.00 1641.00,1906.00
             1641.00,1906.00 1655.00,1921.00 1655.00,1921.00
             1655.00,1921.00 1781.00,2047.00 1781.00,2047.00
             1781.00,2047.00 1792.01,2059.00 1792.01,2059.00
             1792.01,2059.00 1831.00,2098.00 1831.00,2098.00
             1831.00,2098.00 1891.00,2158.00 1891.00,2158.00
             1891.00,2158.00 1925.42,2193.00 1925.42,2193.00
             1925.42,2193.00 1952.00,2220.00 1952.00,2220.00
             1954.57,2222.57 1959.26,2228.17 1963.00,2228.30
             1965.81,2228.39 1971.47,2224.87 1974.00,2223.42
             1974.00,2223.42 1999.00,2208.81 1999.00,2208.81
             2021.92,2194.77 2044.01,2179.35 2065.00,2162.55
             2065.00,2162.55 2093.00,2139.00 2093.00,2139.00
             2093.00,2139.00 2056.00,2100.00 2056.00,2100.00
             2056.00,2100.00 1990.00,2034.00 1990.00,2034.00
             1990.00,2034.00 1965.04,2009.00 1965.04,2009.00
             1965.04,2009.00 1955.00,1998.00 1955.00,1998.00
             1955.00,1998.00 1850.00,1893.00 1850.00,1893.00
             1850.00,1893.00 1838.99,1881.00 1838.99,1881.00
             1838.99,1881.00 1801.00,1843.00 1801.00,1843.00
             1801.00,1843.00 1839.00,1828.20 1839.00,1828.20
             1872.14,1814.94 1895.75,1804.65 1925.00,1783.12
             1984.24,1739.50 2026.05,1677.30 2043.87,1606.00
             2048.03,1589.39 2052.80,1563.94 2053.00,1547.00
             2053.03,1544.39 2053.30,1535.29 2052.43,1533.38
             2051.25,1530.79 2044.63,1527.43 2042.00,1525.51
             2036.42,1521.44 2029.83,1515.32 2025.46,1510.00
             2010.76,1492.06 2005.74,1473.77 2006.00,1451.00
             2006.19,1435.47 2012.61,1418.66 2021.35,1406.00
             2025.73,1399.64 2028.78,1394.16 2037.00,1394.00
             2037.00,1394.00 2043.00,1394.00 2043.00,1394.00
             2043.00,1394.00 2043.00,1449.00 2043.00,1449.00
             2043.00,1451.38 2042.79,1454.70 2044.02,1456.79
             2045.49,1459.28 2051.34,1462.21 2054.00,1463.80
             2054.00,1463.80 2079.00,1478.28 2079.00,1478.28
             2082.16,1480.08 2089.61,1485.15 2093.00,1484.77
             2095.22,1484.52 2099.86,1481.50 2102.00,1480.28
             2102.00,1480.28 2120.00,1469.99 2120.00,1469.99
             2123.54,1467.91 2138.42,1459.92 2140.01,1457.47
             2141.24,1455.57 2141.00,1452.23 2141.00,1450.00
             2141.00,1450.00 2141.00,1394.00 2141.00,1394.00
             2143.71,1394.00 2149.70,1393.75 2152.00,1394.60
             2159.24,1397.27 2167.94,1413.00 2171.22,1420.00
             2184.58,1448.49 2179.84,1484.80 2159.72,1509.00
             2153.78,1516.14 2150.47,1519.48 2143.00,1525.10
             2140.36,1527.09 2133.41,1531.03 2132.02,1533.33
             2130.53,1535.79 2131.03,1541.98 2131.00,1545.00
             2131.00,1545.00 2130.09,1555.00 2130.09,1555.00
             2128.46,1578.76 2125.16,1601.84 2119.37,1625.00
             2101.63,1695.98 2066.70,1756.30 2015.00,1808.00
             1992.74,1830.26 1964.54,1852.60 1937.00,1868.00 Z
           M 1538.00,1913.00
           C 1538.00,1913.00 1537.00,1925.00 1537.00,1925.00
             1537.00,1925.00 1537.00,1947.00 1537.00,1947.00
             1537.00,1947.00 1537.00,2024.00 1537.00,2024.00
             1537.00,2024.00 1537.00,2289.00 1537.00,2289.00
             1537.00,2289.00 1599.00,2298.83 1599.00,2298.83
             1662.02,2305.14 1722.63,2302.83 1785.00,2291.58
             1809.70,2287.12 1833.99,2280.51 1858.00,2273.28
             1858.00,2273.28 1886.00,2264.00 1886.00,2264.00
             1886.00,2264.00 1853.00,2230.00 1853.00,2230.00
             1853.00,2230.00 1783.04,2160.00 1783.04,2160.00
             1783.04,2160.00 1774.96,2151.00 1774.96,2151.00
             1774.96,2151.00 1735.00,2111.00 1735.00,2111.00
             1735.00,2111.00 1656.00,2032.00 1656.00,2032.00
             1656.00,2032.00 1640.00,2015.00 1640.00,2015.00
             1640.00,2015.00 1538.00,1913.00 1538.00,1913.00 Z" />
</svg>
