<?xml version="1.0" standalone="no"?>
<!DOCTYPE svg PUBLIC "-//W3C//DTD SVG 20010904//EN"
 "http://www.w3.org/TR/2001/REC-SVG-20010904/DTD/svg10.dtd">
<svg version="1.0" xmlns="http://www.w3.org/2000/svg"
 width="3334.000000pt" height="3335.000000pt" viewBox="0 0 3334.000000 3335.000000"
 preserveAspectRatio="xMidYMid meet">

<g transform="translate(0.000000,3335.000000) scale(0.100000,-0.100000)"
fill="#000000" stroke="none">
<path d="M15630 27108 c-694 -71 -1408 -221 -2092 -439 -154 -48 -158 -50
-158 -77 0 -16 36 -489 80 -1052 44 -563 77 -1027 73 -1030 -5 -3 -66 -30
-138 -60 -717 -295 -1484 -761 -2104 -1278 l-144 -120 -131 63 c-72 34 -504
248 -960 474 l-829 412 -25 -23 c-42 -39 -304 -327 -416 -456 -276 -320 -543
-673 -797 -1056 -99 -147 -179 -271 -179 -275 0 -3 326 -338 724 -743 l723
-738 -110 -217 c-409 -807 -680 -1654 -813 -2537 -16 -103 -33 -190 -39 -192
-5 -2 -461 -114 -1013 -248 -551 -134 -1005 -246 -1008 -249 -3 -3 -10 -130
-16 -284 -15 -407 8 -982 57 -1418 24 -208 66 -509 74 -517 3 -4 456 -50 1006
-103 550 -53 1009 -98 1020 -100 18 -4 26 -26 54 -147 79 -337 223 -792 362
-1140 222 -555 477 -1043 801 -1533 54 -82 96 -155 94 -162 -3 -7 -275 -380
-606 -829 -330 -448 -600 -820 -600 -826 0 -13 176 -227 360 -437 175 -201
568 -601 780 -795 176 -162 377 -336 395 -342 7 -3 396 259 864 581 469 322
855 585 857 585 1 0 85 -56 186 -124 805 -543 1677 -934 2643 -1183 l70 -18 3
-40 c2 -22 31 -484 66 -1028 35 -543 65 -990 68 -992 12 -12 373 -70 658 -105
439 -54 1124 -89 1434 -73 l159 8 284 1019 c155 561 285 1021 287 1023 2 2 85
15 185 29 854 115 1720 375 2494 747 l148 71 39 -40 c21 -21 345 -361 719
-754 375 -393 687 -716 694 -718 26 -6 532 311 817 511 172 120 416 305 585
442 191 155 485 413 485 426 0 5 -202 453 -449 995 l-448 987 115 131 c488
555 922 1208 1249 1884 51 105 97 192 101 192 4 0 473 -52 1042 -115 569 -63
1046 -115 1060 -115 25 0 30 9 92 183 166 459 295 914 398 1397 45 212 118
640 122 718 l3 52 -990 473 -989 473 2 340 c6 660 -52 1229 -188 1861 -22 102
-40 192 -40 199 0 7 407 284 905 615 498 331 905 605 905 609 0 4 -31 99 -69
211 -196 579 -454 1161 -754 1699 -109 197 -191 330 -202 330 -5 0 -481 -121
-1056 -270 -576 -148 -1053 -270 -1060 -269 -8 0 -66 71 -129 156 -370 501
-874 1029 -1397 1461 -62 51 -110 98 -108 105 2 7 142 482 310 1057 289 985
305 1045 288 1058 -10 7 -106 69 -213 136 -568 358 -1136 646 -1765 893 -179
70 -190 73 -203 56 -7 -10 -290 -406 -629 -879 l-615 -862 -67 19 c-161 48
-502 131 -686 168 -509 101 -940 149 -1436 158 l-307 6 -437 999 c-241 549
-441 1000 -444 1001 -3 2 -40 0 -81 -5z m1320 -4088 c113 -6 275 -17 360 -25
1879 -186 3575 -1204 4639 -2784 584 -868 936 -1849 1047 -2921 21 -209 30
-805 15 -1026 -48 -691 -191 -1324 -441 -1951 -91 -226 -311 -672 -433 -874
-176 -294 -364 -560 -571 -812 l-90 -108 -148 148 c-291 290 -1963 1983 -1965
1991 -2 4 47 38 107 75 590 366 1083 902 1401 1522 265 515 403 1037 435 1646
l7 126 52 31 c316 189 481 579 396 935 -33 140 -105 281 -189 370 -34 35 -39
37 -99 37 l-63 0 0 -315 0 -314 -82 -49 c-46 -27 -156 -90 -244 -141 l-162
-93 -246 143 -246 142 0 314 0 313 -65 0 -65 0 -50 -62 c-105 -133 -175 -316
-187 -493 -10 -158 35 -345 118 -487 55 -94 174 -217 276 -284 l82 -55 -5
-102 c-23 -439 -123 -837 -308 -1222 -227 -471 -550 -862 -968 -1171 -256
-190 -450 -291 -907 -474 -182 -72 -331 -134 -331 -136 0 -1 655 -664 1455
-1471 800 -807 1454 -1472 1452 -1478 -5 -15 -214 -193 -357 -305 -247 -192
-522 -373 -803 -531 l-143 -79 -700 702 c-385 387 -1249 1255 -1919 1931
l-1218 1227 -596 -2 -596 -3 -3 -2112 c-1 -1451 -5 -2113 -12 -2113 -16 0
-238 84 -375 142 -1889 798 -3286 2469 -3730 4460 -221 987 -204 2010 50 2993
46 179 95 342 147 488 l31 87 3406 -2 3406 -3 90 -28 c277 -86 473 -289 546
-563 29 -110 29 -288 0 -397 -71 -268 -283 -483 -556 -564 -57 -17 -202 -18
-2710 -23 l-2650 -5 -3 -1592 -2 -1592 -68 -44 c-414 -269 -528 -820 -251
-1217 79 -113 88 -120 157 -120 l62 0 2 331 3 332 230 133 c127 74 237 136
246 139 10 3 114 -51 255 -133 l239 -138 3 -332 2 -332 65 0 64 0 57 73 c64
81 124 198 155 302 30 101 37 285 15 396 -47 232 -185 435 -384 563 l-72 47 0
1209 0 1210 2264 0 c2203 0 2267 1 2379 20 650 111 1147 602 1273 1260 28 145
26 418 -4 568 -63 315 -195 570 -411 796 -220 228 -488 374 -826 448 l-100 22
-3267 3 c-1798 2 -3268 6 -3268 10 0 10 117 217 193 343 166 272 369 555 571
794 99 119 310 349 378 414 l35 33 2689 -4 c2959 -3 2764 1 3084 -63 579 -115
1123 -397 1552 -803 l96 -91 491 0 c270 0 491 3 491 6 0 9 -161 223 -226 300
-254 303 -522 542 -849 759 -267 176 -457 276 -740 388 -322 127 -638 206
-1010 253 -129 17 -316 19 -2380 24 l-2240 5 133 83 c1086 678 2364 1013 3632
952z m495 -10873 c780 -786 1414 -1432 1409 -1437 -13 -11 -263 -94 -442 -145
-855 -246 -1792 -305 -2692 -169 -91 14 -205 32 -255 42 l-90 17 -3 1890 -2
1890 329 -330 c180 -181 966 -973 1746 -1758z"/>
</g>
</svg>
